<?xml version="1.0" encoding="UTF-8" standalone="no"?>
<svg xmlns="http://www.w3.org/2000/svg" version="1.1">
<path d="M 130,69 L 129,70 L 128,70 L 127,71 L 126,71 L 127,72 L 127,74 L 128,75 L 128,78 L 126,80 L 125,80 L 125,83 L 124,84 L 124,85 L 123,86 L 122,86 L 122,89 L 123,90 L 123,96 L 119,100 L 117,100 L 116,101 L 108,101 L 107,100 L 100,100 L 99,101 L 96,101 L 92,105 L 92,106 L 91,107 L 91,116 L 130,116 Z" fill="white" stroke="black" stroke-width="1"/>
<path d="M 13,45 L 13,57 L 17,57 L 18,56 L 18,55 L 19,54 L 19,47 L 17,45 Z" fill="white" stroke="black" stroke-width="1"/>
<path d="M 6,43 L 6,57 L 7,58 L 7,59 L 8,60 L 8,44 L 7,44 Z" fill="white" stroke="black" stroke-width="1"/>
<path d="M 89,0 L 92,0 L 93,1 L 95,1 L 96,2 L 97,2 L 98,3 L 99,3 L 100,4 L 101,4 L 103,6 L 104,6 L 106,8 L 107,8 L 118,19 L 118,20 L 120,22 L 120,23 L 121,24 L 121,25 L 122,26 L 122,27 L 123,28 L 123,30 L 124,31 L 124,42 L 123,43 L 123,45 L 122,46 L 122,47 L 121,48 L 121,50 L 122,51 L 122,52 L 123,53 L 123,54 L 130,61 L 130,0 Z" fill="white" stroke="black" stroke-width="1"/>
<path d="M 0,0 L 0,39 L 3,39 L 5,41 L 6,40 L 17,40 L 18,41 L 20,41 L 24,45 L 24,46 L 25,47 L 25,54 L 24,55 L 24,56 L 23,57 L 23,58 L 21,60 L 20,60 L 19,61 L 14,61 L 14,73 L 15,73 L 17,75 L 16,76 L 6,76 L 5,75 L 5,74 L 6,73 L 7,73 L 8,72 L 8,62 L 6,62 L 2,58 L 2,56 L 1,55 L 1,42 L 0,42 L 0,116 L 89,116 L 88,115 L 88,114 L 87,113 L 87,111 L 86,110 L 86,107 L 85,106 L 85,102 L 84,101 L 84,90 L 85,89 L 85,84 L 86,83 L 86,81 L 87,80 L 87,78 L 88,77 L 88,76 L 89,75 L 89,73 L 90,72 L 90,70 L 91,69 L 91,67 L 92,66 L 92,64 L 93,63 L 93,60 L 94,59 L 94,56 L 95,55 L 95,50 L 96,49 L 96,32 L 95,31 L 95,29 L 94,28 L 94,26 L 92,24 L 92,23 L 89,20 L 88,20 L 86,18 L 85,18 L 84,17 L 83,17 L 82,16 L 79,16 L 78,15 L 68,15 L 67,16 L 64,16 L 63,17 L 61,17 L 60,18 L 59,18 L 58,19 L 57,19 L 55,21 L 54,21 L 52,23 L 52,24 L 50,26 L 50,27 L 49,28 L 49,30 L 48,31 L 48,38 L 49,39 L 49,41 L 50,42 L 50,43 L 51,44 L 51,45 L 55,49 L 56,49 L 57,50 L 61,50 L 62,51 L 64,51 L 65,50 L 68,50 L 69,49 L 71,49 L 72,48 L 74,48 L 76,46 L 77,46 L 78,47 L 77,48 L 77,49 L 72,54 L 71,54 L 70,55 L 69,55 L 68,56 L 66,56 L 65,57 L 58,57 L 57,56 L 55,56 L 54,55 L 53,55 L 52,54 L 51,54 L 45,48 L 45,47 L 43,45 L 43,44 L 42,43 L 42,42 L 41,41 L 41,38 L 40,37 L 40,30 L 41,29 L 41,27 L 42,26 L 42,24 L 43,23 L 43,22 L 52,13 L 53,13 L 55,11 L 56,11 L 57,10 L 59,10 L 60,9 L 62,9 L 63,8 L 67,8 L 68,7 L 79,7 L 80,8 L 83,8 L 82,8 L 81,7 L 79,7 L 78,6 L 74,6 L 73,5 L 69,5 L 68,6 L 63,6 L 62,7 L 59,7 L 58,8 L 56,8 L 55,9 L 53,9 L 52,10 L 51,10 L 50,11 L 48,9 L 49,8 L 50,8 L 52,6 L 53,6 L 54,5 L 55,5 L 56,4 L 57,4 L 58,3 L 59,3 L 60,2 L 62,2 L 63,1 L 65,1 L 66,0 L 69,0 Z" fill="white" stroke="black" stroke-width="1"/>
</svg>